<!-- Asteroid SVG icon for PWA -->
<svg xmlns="http://www.w3.org/2000/svg" viewBox="0 0 512 512" width="512" height="512">
  <defs>
    <radialGradient id="asteroidGradient" cx="0.3" cy="0.3" r="0.8">
      <stop offset="0%" style="stop-color:#ff00ff;stop-opacity:1" />
      <stop offset="50%" style="stop-color:#8000ff;stop-opacity:1" />
      <stop offset="100%" style="stop-color:#000033;stop-opacity:1" />
    </radialGradient>
    <filter id="glow" x="-50%" y="-50%" width="200%" height="200%">
      <feGaussianBlur stdDeviation="4" result="coloredBlur"/>
      <feMerge>
        <feMergeNode in="coloredBlur"/>
        <feMergeNode in="SourceGraphic"/>
      </feMerge>
    </filter>
  </defs>
  
  <!-- Background space -->
  <rect width="512" height="512" fill="url(#asteroidGradient)" opacity="0.1"/>
  
  <!-- Main asteroid shape -->
  <path d="M256 50 L350 120 L420 180 L450 256 L420 330 L380 400 L300 450 L220 460 L150 420 L80 350 L60 280 L90 200 L140 120 L200 80 Z" 
        fill="url(#asteroidGradient)" 
        filter="url(#glow)" 
        stroke="#ff00ff" 
        stroke-width="3"/>
  
  <!-- Crater details -->
  <circle cx="200" cy="180" r="20" fill="#4000aa" opacity="0.7"/>
  <circle cx="320" cy="220" r="15" fill="#4000aa" opacity="0.7"/>
  <circle cx="180" cy="300" r="12" fill="#4000aa" opacity="0.7"/>
  <circle cx="340" cy="340" r="18" fill="#4000aa" opacity="0.7"/>
  
  <!-- Highlight -->
  <ellipse cx="200" cy="150" rx="40" ry="25" fill="#ff44ff" opacity="0.3"/>
  
  <!-- Sparkle effects -->
  <g fill="#00ffff" opacity="0.8">
    <circle cx="150" cy="150" r="2">
      <animate attributeName="opacity" values="0.3;1;0.3" dur="2s" repeatCount="indefinite"/>
    </circle>
    <circle cx="380" cy="200" r="2">
      <animate attributeName="opacity" values="1;0.3;1" dur="1.5s" repeatCount="indefinite"/>
    </circle>
    <circle cx="300" cy="380" r="2">
      <animate attributeName="opacity" values="0.5;1;0.5" dur="1.8s" repeatCount="indefinite"/>
    </circle>
  </g>
</svg>
